<mxfile host="app.diagrams.net" agent="Mozilla/5.0 (Windows NT 10.0; Win64; x64) AppleWebKit/537.36 (KHTML, like Gecko) Chrome/133.0.0.0 Safari/537.36" version="26.1.0">
  <diagram id="GOq41S3TKbRNWYXJlC24" name="Page-2">
    <mxGraphModel dx="1434" dy="738" grid="1" gridSize="10" guides="1" tooltips="1" connect="1" arrows="1" fold="1" page="1" pageScale="1" pageWidth="850" pageHeight="1100" math="0" shadow="0">
      <root>
        <mxCell id="0" />
        <mxCell id="1" parent="0" />
        <mxCell id="pfstzMLpgTwHbu6msEai-1" value="namespace: Team-A" style="swimlane;whiteSpace=wrap;html=1;" vertex="1" parent="1">
          <mxGeometry x="70" y="240" width="200" height="200" as="geometry" />
        </mxCell>
        <mxCell id="pfstzMLpgTwHbu6msEai-8" value="GRE-Team-A&lt;br&gt;10.1.200.3/24" style="ellipse;whiteSpace=wrap;html=1;" vertex="1" parent="pfstzMLpgTwHbu6msEai-1">
          <mxGeometry x="44" y="90" width="100" height="50" as="geometry" />
        </mxCell>
        <mxCell id="pfstzMLpgTwHbu6msEai-13" value="" style="endArrow=classic;startArrow=classic;html=1;rounded=0;exitX=0.5;exitY=0;exitDx=0;exitDy=0;" edge="1" parent="pfstzMLpgTwHbu6msEai-1" source="pfstzMLpgTwHbu6msEai-4">
          <mxGeometry width="50" height="50" relative="1" as="geometry">
            <mxPoint x="44" y="190" as="sourcePoint" />
            <mxPoint x="94" y="140" as="targetPoint" />
          </mxGeometry>
        </mxCell>
        <mxCell id="pfstzMLpgTwHbu6msEai-2" value="namespace: Team-B" style="swimlane;whiteSpace=wrap;html=1;" vertex="1" parent="1">
          <mxGeometry x="550" y="240" width="200" height="200" as="geometry" />
        </mxCell>
        <mxCell id="pfstzMLpgTwHbu6msEai-9" value="GRE-Team-B&lt;br&gt;10.1.100.3/24" style="ellipse;whiteSpace=wrap;html=1;" vertex="1" parent="pfstzMLpgTwHbu6msEai-2">
          <mxGeometry x="60" y="90" width="100" height="50" as="geometry" />
        </mxCell>
        <mxCell id="pfstzMLpgTwHbu6msEai-14" value="" style="endArrow=classic;startArrow=classic;html=1;rounded=0;exitX=0.5;exitY=0;exitDx=0;exitDy=0;" edge="1" parent="pfstzMLpgTwHbu6msEai-2" source="pfstzMLpgTwHbu6msEai-6">
          <mxGeometry width="50" height="50" relative="1" as="geometry">
            <mxPoint x="60" y="190" as="sourcePoint" />
            <mxPoint x="110" y="140" as="targetPoint" />
          </mxGeometry>
        </mxCell>
        <mxCell id="pfstzMLpgTwHbu6msEai-3" value="Host default namespace" style="rounded=0;whiteSpace=wrap;html=1;" vertex="1" parent="1">
          <mxGeometry x="270" y="510" width="310" height="80" as="geometry" />
        </mxCell>
        <mxCell id="pfstzMLpgTwHbu6msEai-4" value="Veth-Team-A-X&lt;div&gt;192.168.200.3/24&lt;/div&gt;" style="ellipse;whiteSpace=wrap;html=1;" vertex="1" parent="1">
          <mxGeometry x="114" y="420" width="100" height="50" as="geometry" />
        </mxCell>
        <mxCell id="pfstzMLpgTwHbu6msEai-5" value="Veth-Team-A-Y&lt;div&gt;192.168.200.2/24&lt;/div&gt;" style="ellipse;whiteSpace=wrap;html=1;" vertex="1" parent="1">
          <mxGeometry x="217" y="525" width="110" height="50" as="geometry" />
        </mxCell>
        <mxCell id="pfstzMLpgTwHbu6msEai-6" value="Veth-Team-B-X&lt;div&gt;192.168.100.3/24&lt;/div&gt;" style="ellipse;whiteSpace=wrap;html=1;" vertex="1" parent="1">
          <mxGeometry x="610" y="420" width="100" height="50" as="geometry" />
        </mxCell>
        <mxCell id="pfstzMLpgTwHbu6msEai-7" value="Veth-Team-B-Y&lt;div&gt;192.168.100.2/24&lt;/div&gt;" style="ellipse;whiteSpace=wrap;html=1;" vertex="1" parent="1">
          <mxGeometry x="525" y="525" width="110" height="50" as="geometry" />
        </mxCell>
        <mxCell id="pfstzMLpgTwHbu6msEai-11" value="" style="endArrow=classic;startArrow=classic;html=1;rounded=0;exitX=0;exitY=0.5;exitDx=0;exitDy=0;" edge="1" parent="1" source="pfstzMLpgTwHbu6msEai-5">
          <mxGeometry width="50" height="50" relative="1" as="geometry">
            <mxPoint x="160" y="560" as="sourcePoint" />
            <mxPoint x="160" y="470" as="targetPoint" />
            <Array as="points">
              <mxPoint x="160" y="550" />
            </Array>
          </mxGeometry>
        </mxCell>
        <mxCell id="pfstzMLpgTwHbu6msEai-12" value="" style="endArrow=classic;startArrow=classic;html=1;rounded=0;exitX=1;exitY=0.5;exitDx=0;exitDy=0;" edge="1" parent="1" source="pfstzMLpgTwHbu6msEai-7">
          <mxGeometry width="50" height="50" relative="1" as="geometry">
            <mxPoint x="640" y="550" as="sourcePoint" />
            <mxPoint x="660" y="470" as="targetPoint" />
            <Array as="points">
              <mxPoint x="660" y="550" />
            </Array>
          </mxGeometry>
        </mxCell>
      </root>
    </mxGraphModel>
  </diagram>
</mxfile>
